<svg width="753" height="480" viewBox="0 0 753 480" fill="none" xmlns="http://www.w3.org/2000/svg">
<g clip-path="url(#clip0_4110_1157)">
<path d="M407.856 325.093H498.917C477.186 334.954 460.342 353.847 453.048 376.955C446.055 353.922 429.437 335.029 407.856 325.093Z" fill="#9E76E9"/>
<path d="M349.731 317.416H257.692C279.574 307.48 296.493 288.361 303.711 265.103C310.855 288.361 327.774 307.48 349.731 317.416Z" fill="#9E76E9"/>
<path d="M449.138 402.472V403.676C449.138 445.752 414.925 480 372.891 480H76.2475C34.2136 480 0 445.752 0 403.676V401.267C0 360.32 32.4089 326.749 72.9389 325.018H73.0893C74.518 325.018 76.0219 325.018 77.4506 325.018H222.501C224.306 325.018 226.035 325.018 227.765 324.868H372.891C414.925 324.868 449.138 359.116 449.138 401.192V402.396V402.472Z" fill="#9E76E9"/>
<path d="M226.411 166.348C265.588 168.456 296.192 200.747 296.192 240.038C296.192 279.329 265.889 311.244 227.464 313.652H76.2475C75.2699 313.652 74.142 313.652 73.3901 313.728C34.364 311.545 3.75974 279.178 3.75974 240.038C3.75974 200.897 35.9431 167.327 75.3451 166.348H226.411ZM226.487 162.584H75.3451C33.612 163.638 0 197.962 0 240.038C0 282.114 32.4089 315.233 73.1645 317.491H73.4652C74.3676 317.416 75.3451 317.416 76.2475 317.416H227.464C267.844 314.857 299.952 281.136 299.952 240.038C299.952 198.94 267.317 164.692 226.487 162.584Z" fill="#9E76E9"/>
<path d="M574.262 162.509C616.973 162.509 651.713 197.284 651.713 240.037C651.713 282.791 619.604 314.856 579.225 317.415H534.108C532.303 317.415 530.574 317.491 528.844 317.566H384.847C342.211 317.566 307.471 282.791 307.471 240.037C307.471 197.284 342.211 162.509 384.847 162.509H427.933C429.362 162.509 430.866 162.509 432.294 162.509H473.501C474.93 162.509 476.434 162.509 477.862 162.509H574.262Z" fill="#9E76E9"/>
<path d="M675.549 3.76353C716.155 3.76353 749.24 36.8825 749.24 77.5286C749.24 118.175 716.155 151.294 675.549 151.294H635.395C595.016 151.294 562.005 118.401 561.705 78.0555V77.0017C562.005 36.5815 595.016 3.76353 635.395 3.76353H675.549ZM675.549 0H635.395C592.835 0 558.246 34.4739 557.945 77.0017V78.0555C558.246 120.583 592.835 155.057 635.395 155.057H675.549C718.26 155.057 753 120.282 753 77.5286C753 34.775 718.26 0 675.549 0Z" fill="#9E76E9"/>
<path d="M473.501 3.76353C513.881 3.76353 546.666 36.5815 546.666 77.0017V78.0555C546.666 117.046 516.212 149.186 477.487 151.218H428.535C389.659 149.186 359.13 117.046 359.13 78.0555V77.0017C359.13 36.5815 391.915 3.76353 432.295 3.76353H473.501ZM473.501 0H432.295C389.885 0 355.37 34.5492 355.37 77.0017V78.0555C355.37 119.153 387.779 152.874 428.309 154.982H477.487C518.016 152.874 550.425 119.153 550.425 78.0555V77.0017C550.425 34.5492 515.911 0 473.501 0Z" fill="#9E76E9"/>
<path d="M270.4 3.76353C310.78 3.76353 343.79 36.6567 344.091 77.0017V78.0555C343.79 118.476 310.78 151.294 270.4 151.294H227.088C225.584 151.294 224.08 151.218 222.501 151.218H75.4203C35.8679 150.24 3.75974 117.196 3.75974 77.5286C3.75974 37.8611 36.8454 3.76353 77.4506 3.76353H270.4ZM270.4 0H77.4506C34.74 0 0 34.775 0 77.5286C0 120.282 33.612 153.928 75.3451 154.982H222.501C224.005 154.982 225.434 154.982 226.862 155.057H270.4C312.96 155.057 347.55 120.583 347.851 78.0555V77.0017C347.55 34.4739 312.96 0 270.4 0Z" fill="#9E76E9"/>
<path d="M384.847 317.566H528.845C518.242 318.244 508.166 320.878 498.917 325.093H407.856C397.179 320.125 385.373 317.416 372.891 317.416H349.731C327.774 307.48 310.855 288.361 303.711 265.103C306.118 257.199 307.471 248.769 307.471 240.038C307.471 282.791 342.211 317.566 384.847 317.566Z" fill="#9E76E9"/>
<path d="M453.048 376.955C450.642 384.632 449.288 392.837 449.138 401.267C449.138 359.191 414.924 324.943 372.891 324.943H227.765C238.367 324.265 248.443 321.631 257.692 317.416H349.731C360.408 322.383 372.364 325.093 384.847 325.093H407.856C429.437 335.029 446.055 353.922 453.048 376.955Z" fill="#9E76E9"/>
<path d="M407.856 325.093H384.847C372.364 325.093 360.408 322.383 349.731 317.416H372.891C385.373 317.416 397.179 320.125 407.856 325.093Z" fill="#9E76E9"/>
<path d="M76.2475 324.943H227.765C226.035 325.018 224.306 325.093 222.501 325.093H77.4506C76.0219 325.093 74.518 325.093 73.0893 325.093C74.142 325.018 75.1947 325.018 76.2475 325.018V324.943Z" fill="black"/>
<path d="M76.2475 317.416H227.464C225.81 317.491 224.155 317.566 222.501 317.566H77.4506C76.0971 317.566 74.8188 317.566 73.4652 317.566C74.3676 317.491 75.3451 317.491 76.2475 317.491V317.416Z" fill="black"/>
<path d="M94.595 72.9373C100.686 73.3137 114.672 75.1202 114.672 90.3248C114.672 104.099 103.844 109.444 87.0755 109.444H60.607V106.809C68.6528 105.304 68.6528 102.293 68.6528 94.841V55.4745C68.6528 48.0228 68.6528 45.012 60.607 43.5065V40.8721H87.9778C96.2492 40.8721 111.213 41.6248 111.213 56.4531C111.213 69.7759 98.8811 72.3351 94.595 72.7868V72.9373ZM75.4955 45.3883V70.8297H83.3158C96.3244 70.8297 103.919 68.1953 103.919 56.6036C103.919 47.1195 95.8733 45.313 86.098 45.313H75.4203L75.4955 45.3883ZM87.0003 105.078C96.1741 105.078 107.152 103.497 107.152 90.4001C107.152 78.2062 99.257 75.2707 83.3158 75.2707H75.4955V98.0777C75.4955 103.271 76.2475 105.153 81.8119 105.153H87.0003V105.078Z" fill="black"/>
<path d="M155.728 64.3563C155.728 65.9369 155.127 67.6682 154.074 68.722C144.75 63.5283 136.102 70.3779 135.125 86.3353V97.7011C135.125 103.346 135.125 106.207 142.268 107.035V109.519H123.094V107.035C128.959 106.282 128.959 103.422 128.959 97.7011V73.7651C128.959 68.1198 128.959 64.0552 122.718 63.9799V61.6465L133.847 59.3131L135.501 60.9691C135.05 66.1628 134.824 69.0983 134.599 73.1629V76.3243C137.606 64.5068 144.299 59.1626 149.788 59.1626C153.698 59.1626 155.728 61.496 155.728 64.3563Z" fill="black"/>
<path d="M162.571 109.443V106.959C168.436 106.207 168.436 103.346 168.436 97.6259V73.6899C168.436 67.894 168.436 63.9047 162.195 63.9047V61.4208L173.85 59.1627L175.58 60.8186C174.903 65.109 174.602 67.894 174.602 72.1092V97.6259C174.602 103.271 174.602 106.131 180.467 106.959V109.443H162.571ZM166.18 44.3344C166.18 41.3235 168.06 39.0654 171.519 39.0654C174.978 39.0654 176.858 41.3235 176.858 44.3344C176.858 47.3452 175.129 49.4528 171.519 49.4528C167.91 49.4528 166.18 47.2699 166.18 44.3344Z" fill="black"/>
<path d="M233.63 97.701C233.63 103.346 233.63 106.207 239.495 107.035V109.518H221.599V107.035C227.464 106.131 227.464 103.422 227.464 97.701V74.1414C227.464 71.4316 227.389 63.9798 218.365 63.9798C207.011 63.9798 199.492 75.722 199.492 86.1846V97.701C199.492 103.346 199.492 106.131 205.357 107.035V109.518H187.46V107.035C193.326 106.282 193.326 103.422 193.326 97.701V73.765C193.326 68.1197 193.326 64.0551 187.084 63.9798V61.6464L198.213 59.3131L199.868 60.969C199.492 66.6143 199.266 67.2917 199.116 73.1628V74.6682C203.026 64.9584 211.222 59.2378 220.095 59.2378C228.366 59.2378 233.555 64.2056 233.555 74.2166V97.7763L233.63 97.701Z" fill="black"/>
<path d="M288.748 114.863C288.748 122.615 281.98 129.841 264.761 129.841C249.195 129.841 243.18 123.97 243.18 118.4C243.18 114.185 246.488 111.25 250.699 111.852C247.842 120.884 252.053 125.852 265.663 125.852C277.168 125.852 282.281 121.185 282.281 116.293C282.281 103.497 248.669 115.389 248.669 100.561C248.669 97.0234 251.526 93.4104 257.467 92.0556V91.8298C250.248 89.8727 245.736 84.5285 245.736 76.8509C245.736 66.1625 253.481 59.2376 264.084 59.2376C269.949 59.2376 273.258 61.571 277.845 61.571C281.83 61.571 284.386 59.8398 285.364 56.4526C287.394 56.9043 288.673 59.0118 288.673 61.4205C288.673 65.0335 286.492 66.7647 283.484 66.7647C281.153 66.7647 279.348 65.4851 276.717 64.2055C279.95 67.2163 282.281 71.4315 282.281 76.7004C282.281 87.2383 274.536 94.3137 263.933 94.3137C256.715 94.3137 254.534 96.346 254.534 98.6041C254.534 107.637 288.673 96.8729 288.673 114.712L288.748 114.863ZM264.385 90.7007C271.528 90.7007 275.814 85.8834 275.814 78.5069C275.814 69.9261 271.679 62.8506 263.783 62.8506C256.64 62.8506 252.278 67.5174 252.278 74.9692C252.278 83.7006 256.414 90.7007 264.385 90.7007Z" fill="black"/>
<path d="M453.951 97.3246C453.951 103.271 453.951 107.336 460.192 107.034V109.518L448.461 110.798L447.033 109.293C447.333 104.174 447.709 100.787 447.935 96.6472V96.3461C444.1 105.454 436.806 110.798 428.159 110.798C419.511 110.798 414.699 105.83 414.699 95.7439V73.7649C414.699 68.1196 414.699 64.055 408.458 63.9798V61.6464L419.963 59.313L421.617 60.9689C421.316 65.1841 420.865 69.4745 420.865 73.3886V95.8192C420.865 99.2816 421.391 106.131 430.339 106.131C441.092 106.131 447.86 94.088 447.86 83.6254V73.8402C447.86 68.1949 447.86 64.1303 441.619 64.055V61.7216L453.123 59.3883L454.853 61.1195C454.251 65.2594 453.951 69.5498 453.951 73.4638V97.3999V97.3246Z" fill="black"/>
<path d="M466.884 99.6582C466.884 95.9699 469.215 93.486 472.072 93.7118C471.847 104.25 478.539 106.809 485.382 106.809C492.225 106.809 497.563 104.476 497.563 97.7764C497.563 84.9805 468.99 88.8945 468.99 72.4103C468.99 63.8294 476.133 59.0874 485.608 59.0874C493.428 59.0874 501.774 62.2488 501.774 69.55C501.774 74.0662 498.09 74.8942 496.962 74.5179C496.511 66.6897 492.977 63.0767 485.457 63.0767C477.938 63.0767 474.78 66.6145 474.78 71.1307C474.78 82.6471 503.729 79.1846 503.729 96.1958C503.729 105.755 495.308 110.798 485.081 110.798C475.907 110.798 466.884 107.261 466.884 99.6582Z" fill="black"/>
<path d="M603.137 85.1308C603.137 69.7004 612.386 59.7646 625.244 59.7646C638.102 59.7646 647.427 69.6251 647.427 85.1308C647.427 100.637 638.253 110.497 625.244 110.497C612.235 110.497 603.137 100.637 603.137 85.1308ZM640.659 87.4642C640.659 74.6682 634.869 63.6787 624.492 63.6787C614.792 63.6787 609.829 71.7327 609.829 82.6469C609.829 95.5934 615.619 106.508 625.996 106.508C635.696 106.508 640.659 98.4537 640.659 87.3889V87.4642Z" fill="black"/>
<path d="M701.792 97.701C701.792 103.346 701.792 106.207 707.658 107.035V109.518H689.761V107.035C695.626 106.131 695.626 103.422 695.626 97.701V74.1414C695.626 71.4316 695.551 63.9798 686.528 63.9798C675.173 63.9798 667.654 75.722 667.654 86.1846V97.701C667.654 103.346 667.654 106.131 673.519 107.035V109.518H655.623V107.035C661.488 106.282 661.488 103.422 661.488 97.701V73.765C661.488 68.1197 661.488 64.0551 655.247 63.9798V61.6464L666.376 59.3131L668.03 60.969C667.654 66.6143 667.428 67.2917 667.278 73.1628V74.6682C671.188 64.9584 679.384 59.2378 688.257 59.2378C696.529 59.2378 701.717 64.2056 701.717 74.2166V97.7763L701.792 97.701Z" fill="black"/>
<path d="M91.136 218.586H108.957V221.07C102.791 222.048 102.19 224.607 98.8059 233.263L85.4964 266.909C83.0902 273.082 77.9017 288.437 65.645 288.437C60.1558 288.437 57.0728 285.576 57.0728 281.361C57.0728 278.501 58.9527 276.77 60.0806 276.544C61.7349 281.738 64.6675 282.791 67.2993 282.791C72.2621 282.791 76.849 276.845 81.0599 266.232L67.6001 233.263C63.7651 223.93 63.7651 221.898 57.2232 220.919V218.435H78.0521V220.919C70.9838 221.973 70.6079 224.08 74.3676 233.339L80.5336 248.393L84.3685 259.232L94.6702 232.812C97.9787 224.306 97.8283 221.822 91.2112 220.844V218.36L91.136 218.586Z" fill="black"/>
<path d="M112.792 243.199C112.792 227.769 122.041 217.833 134.899 217.833C147.758 217.833 157.082 227.693 157.082 243.199C157.082 258.705 147.908 268.565 134.899 268.565C121.891 268.565 112.792 258.705 112.792 243.199ZM150.314 245.533C150.314 232.737 144.524 221.747 134.147 221.747C124.447 221.747 119.484 229.801 119.484 240.715C119.484 253.662 125.274 264.576 135.651 264.576C145.351 264.576 150.314 256.522 150.314 245.457V245.533Z" fill="black"/>
<path d="M210.169 255.393C210.169 261.339 210.169 265.404 216.41 265.103V267.587L204.68 268.866L203.251 267.361C203.552 262.243 203.928 258.855 204.154 254.716V254.414C200.319 263.522 193.025 268.866 184.377 268.866C175.73 268.866 170.918 263.899 170.918 253.812V231.833C170.918 226.188 170.918 222.123 164.676 222.048V219.715L176.181 217.381L177.836 219.037C177.535 223.252 177.084 227.543 177.084 231.457V253.888C177.084 257.35 177.61 264.2 186.558 264.2C197.311 264.2 204.078 252.156 204.078 241.694V231.909C204.078 226.263 204.078 222.199 197.837 222.123V219.79L209.342 217.457L211.072 219.188C210.47 223.328 210.169 227.618 210.169 231.532V255.468V255.393Z" fill="black"/>
<path d="M254.91 222.424C254.91 224.005 254.309 225.736 253.256 226.79C243.932 221.596 235.284 228.446 234.307 244.403V255.769C234.307 261.414 234.307 264.275 241.45 265.103V267.586H222.276V265.103C228.141 264.35 228.141 261.49 228.141 255.769V231.833C228.141 226.188 228.141 222.123 221.9 222.048V219.714L233.028 217.381L234.683 219.037C234.232 224.231 234.006 227.166 233.78 231.231V234.392C236.788 222.575 243.481 217.23 248.97 217.23C252.88 217.23 254.91 219.564 254.91 222.424Z" fill="black"/>
<path d="M398.081 255.769C398.081 261.414 398.081 264.275 403.946 265.103V267.586H386.05V265.103C391.915 264.199 391.915 261.49 391.915 255.769V232.285C391.915 228.973 391.389 221.973 382.44 221.973C371.688 221.973 363.942 233.941 363.942 244.554V255.694C363.942 261.339 363.942 264.124 369.808 265.027V267.511H351.911V265.027C357.776 264.275 357.777 261.414 357.777 255.694V210.23C357.777 204.435 357.777 200.445 351.535 200.445V197.961L363.04 195.703L364.694 197.284C364.394 201.875 364.018 206.015 363.942 210.005L363.341 232.887C367.176 223.026 375.372 217.155 384.32 217.155C392.516 217.155 398.006 222.048 398.006 232.134V255.694L398.081 255.769Z" fill="white"/>
<path d="M410.864 267.511V265.027C416.729 264.275 416.729 261.414 416.729 255.694V231.758C416.729 225.962 416.729 221.973 410.488 221.973V219.489L422.143 217.231L423.873 218.886C423.196 223.177 422.895 225.962 422.895 230.177V255.694C422.895 261.339 422.895 264.199 428.76 265.027V267.511H410.864ZM414.473 202.402C414.473 199.391 416.353 197.133 419.812 197.133C423.271 197.133 425.151 199.391 425.151 202.402C425.151 205.413 423.422 207.521 419.812 207.521C416.203 207.521 414.473 205.338 414.473 202.402Z" fill="white"/>
<path d="M468.463 222.424C468.463 224.005 467.862 225.736 466.809 226.79C457.485 221.596 448.837 228.446 447.86 244.403V255.769C447.86 261.414 447.86 264.275 455.003 265.103V267.586H435.829V265.103C441.694 264.35 441.694 261.49 441.694 255.769V231.833C441.694 226.188 441.694 222.123 435.453 222.048V219.714L446.581 217.381L448.236 219.037C447.785 224.231 447.559 227.166 447.333 231.231V234.392C450.341 222.575 457.034 217.23 462.523 217.23C466.433 217.23 468.463 219.564 468.463 222.424Z" fill="white"/>
<path d="M475.306 267.511V265.027C481.171 264.275 481.171 261.414 481.171 255.694V231.758C481.171 225.962 481.171 221.973 474.93 221.973V219.489L486.585 217.231L488.315 218.886C487.638 223.177 487.337 225.962 487.337 230.177V255.694C487.337 261.339 487.337 264.199 493.202 265.027V267.511H475.306ZM478.915 202.402C478.915 199.391 480.795 197.133 484.254 197.133C487.713 197.133 489.593 199.391 489.593 202.402C489.593 205.413 487.863 207.521 484.254 207.521C480.645 207.521 478.915 205.338 478.915 202.402Z" fill="white"/>
<path d="M546.365 255.769C546.365 261.415 546.365 264.275 552.23 265.103V267.587H534.334V265.103C540.199 264.2 540.199 261.49 540.199 255.769V232.21C540.199 229.5 540.124 222.048 531.1 222.048C519.746 222.048 512.227 233.79 512.227 244.253V255.769C512.227 261.415 512.226 264.2 518.092 265.103V267.587H500.195V265.103C506.06 264.35 506.061 261.49 506.061 255.769V231.833C506.061 226.188 506.061 222.123 499.819 222.048V219.715L510.948 217.381L512.602 219.037C512.226 224.683 512.001 225.36 511.851 231.231V232.737C515.761 223.027 523.957 217.306 532.83 217.306C541.101 217.306 546.29 222.274 546.29 232.285V255.845L546.365 255.769Z" fill="white"/>
<path d="M601.483 272.931C601.483 280.684 594.715 287.91 577.496 287.91C561.93 287.91 555.915 282.039 555.915 276.469C555.915 272.253 559.223 269.318 563.434 269.92C560.577 278.953 564.788 283.92 578.398 283.92C589.903 283.92 595.016 279.254 595.016 274.361C595.016 261.565 561.404 273.458 561.404 258.63C561.404 255.092 564.261 251.479 570.202 250.124V249.898C562.983 247.941 558.471 242.597 558.471 234.919C558.471 224.231 566.216 217.306 576.819 217.306C582.684 217.306 585.993 219.639 590.579 219.639C594.565 219.639 597.121 217.908 598.099 214.521C600.129 214.973 601.408 217.08 601.408 219.489C601.408 223.102 599.227 224.833 596.219 224.833C593.888 224.833 592.083 223.553 589.452 222.274C592.685 225.285 595.016 229.5 595.016 234.769C595.016 245.307 587.271 252.382 576.668 252.382C569.45 252.382 567.269 254.414 567.269 256.672C567.269 265.705 601.408 254.941 601.408 272.78L601.483 272.931ZM577.12 248.769C584.263 248.769 588.549 243.952 588.549 236.575C588.549 227.994 584.413 220.919 576.518 220.919C569.375 220.919 565.013 225.586 565.013 233.038C565.013 241.769 569.149 248.769 577.12 248.769Z" fill="white"/>
<path d="M66.5473 389.901C66.5473 384.106 66.5473 380.116 60.3062 380.116V377.632L71.811 375.374L73.5404 377.03C72.8637 381.321 72.6381 384.106 72.6381 388.321V425.58C72.6381 432.354 71.7358 446.505 58.7271 446.505C54.065 446.505 48.5758 444.548 48.5758 439.279C48.5758 436.569 50.5309 434.612 52.9371 434.687C53.8394 439.354 56.2457 442.591 60.1558 442.591C66.2466 442.515 66.3969 435.139 66.3969 430.773V389.901H66.5473ZM64.1411 360.471C64.1411 357.46 66.0962 355.202 69.6303 355.202C73.1645 355.202 74.9691 357.46 74.9691 360.471C74.9691 363.481 73.0893 365.589 69.6303 365.589C66.1714 365.589 64.1411 363.406 64.1411 360.471Z" fill="white"/>
<path d="M84.97 401.267C84.97 385.837 94.219 375.901 107.077 375.901C119.936 375.901 129.26 385.761 129.26 401.267C129.26 416.773 120.086 426.633 107.077 426.633C94.0686 426.633 84.97 416.773 84.97 401.267ZM122.492 403.6C122.492 390.804 116.702 379.815 106.325 379.815C96.6252 379.815 91.6624 387.869 91.6624 398.783C91.6624 411.73 97.4524 422.644 107.829 422.644C117.529 422.644 122.492 414.59 122.492 403.525V403.6Z" fill="white"/>
<path d="M182.347 413.461C182.347 419.407 182.347 423.472 188.588 423.171V425.655L176.858 426.934L175.429 425.429C175.73 420.31 176.106 416.923 176.332 412.783V412.482C172.497 421.59 165.203 426.934 156.555 426.934C147.908 426.934 143.096 421.966 143.096 411.88V389.901C143.096 384.256 143.096 380.191 136.854 380.116V377.783L148.359 375.449L150.013 377.105C149.713 381.32 149.262 385.611 149.262 389.525V411.955C149.262 415.418 149.788 422.267 158.736 422.267C169.489 422.267 176.256 410.224 176.256 399.762V389.976C176.256 384.331 176.256 380.267 170.015 380.191V377.858L181.52 375.524L183.25 377.256C182.648 381.396 182.347 385.686 182.347 389.6V413.536V413.461Z" fill="white"/>
<path d="M227.088 380.492C227.088 382.073 226.487 383.804 225.434 384.858C216.11 379.665 207.462 386.514 206.485 402.471V413.837C206.485 419.483 206.485 422.343 213.628 423.171V425.655H194.454V423.171C200.319 422.418 200.319 419.558 200.319 413.837V389.901C200.319 384.256 200.319 380.191 194.078 380.116V377.783L205.206 375.449L206.861 377.105C206.41 382.299 206.184 385.235 205.958 389.299V392.46C208.966 380.643 215.658 375.299 221.148 375.299C225.058 375.299 227.088 377.632 227.088 380.492Z" fill="white"/>
<path d="M279.8 413.837C279.8 419.483 279.8 422.343 285.665 423.171V425.655H267.768V423.171C273.634 422.268 273.634 419.558 273.634 413.837V390.278C273.634 387.568 273.558 380.116 264.535 380.116C253.181 380.116 245.661 391.858 245.661 402.321V413.837C245.661 419.483 245.661 422.268 251.526 423.171V425.655H233.63V423.171C239.495 422.418 239.495 419.558 239.495 413.837V389.901C239.495 384.256 239.495 380.191 233.254 380.116V377.783L244.383 375.449L246.037 377.105C245.661 382.751 245.436 383.428 245.285 389.299V390.804C249.195 381.095 257.392 375.374 266.265 375.374C274.536 375.374 279.724 380.342 279.724 390.353V413.913L279.8 413.837Z" fill="white"/>
<path d="M333.714 413.16C331.684 418.956 325.668 426.934 314.389 426.934C301.756 426.934 292.883 416.848 292.883 401.719C292.883 385.159 302.584 375.299 315.141 375.299C323.864 375.299 332.962 379.966 332.962 391.557C332.962 393.74 332.737 396.073 332.21 398.708H299.651V400.59C299.651 413.235 305.742 421.59 316.795 421.59C322.736 421.59 327.924 419.031 332.06 412.181L333.789 413.16H333.714ZM300.027 395.095H326.195C326.495 393.514 326.571 392.084 326.571 390.579C326.571 382.675 321.006 379.288 314.916 379.288C307.321 379.288 301.456 384.783 299.952 395.02L300.027 395.095Z" fill="white"/>
<path d="M372.665 376.654H
390.486V379.137C384.32 380.116 383.719 382.675 380.335 391.331L367.025 424.977C364.619 431.149 359.431 446.505 347.174 446.505C341.685 446.505 338.602 443.644 338.602 439.429C338.602 436.569 340.482 434.838 341.61 434.612C343.264 439.806 346.197 440.859 348.828 440.859C353.791 440.859 358.378 434.913 362.589 424.3L349.129 391.331C345.294 381.998 345.294 379.965 338.752 378.987V376.503H359.581V378.987C352.513 380.041 352.137 382.148 355.897 391.407L362.063 406.461L365.898 417.3L376.124 390.88C379.433 382.374 379.282 379.89 372.74 378.912V376.428L372.665 376.654Z" fill="white"/>
</g>
<defs>
<clipPath id="clip0_4110_1157">
<rect width="753" height="480" fill="white"/>
</clipPath>
</defs>
</svg>
