<svg width="37" height="36" viewBox="0 0 37 36" fill="none" xmlns="http://www.w3.org/2000/svg">
<g id="LinkedIn">
<path id="LinkedIn_2" fill-rule="evenodd" clip-rule="evenodd" d="M13.7711 11.0083C13.7711 12.2167 12.7915 13.1963 11.5831 13.1963C10.3747 13.1963 9.39508 12.2167 9.39508 11.0083C9.39508 9.79991 10.3747 8.82031 11.5831 8.82031C12.7915 8.82031 13.7711 9.79991 13.7711 11.0083ZM15.8371 26.9927V14.8537H19.4551V16.5137H19.5061C20.0091 15.5607 21.2391 14.5537 23.0741 14.5537C26.8961 14.5537 27.6001 17.0667 27.6001 20.3367V26.9937H23.8291V21.0897C23.8291 19.6827 23.8051 17.8717 21.8681 17.8717C19.9041 17.8717 19.6061 19.4057 19.6061 20.9897V26.9927H15.8371ZM13.4701 14.8537H9.69507V26.9927H13.4701V14.8537Z" fill="#1A1B1D"/>
</g>
</svg>
