<svg width="228" height="50" viewBox="0 0 228 50" fill="none" xmlns="http://www.w3.org/2000/svg">
<g clip-path="url(#clip0_4010_440)">
<path d="M47.9518 11.1791C45.4227 11.1791 43.9217 12.6996 43.9196 15.2577C43.9196 17.0916 43.9111 18.9234 43.9217 20.7573C43.9343 22.9406 45.5451 24.5542 47.7153 24.5585C51.889 24.5648 56.0627 24.5542 60.2363 24.5627C61.7162 24.5669 63.0884 25.7698 63.2806 27.1928C63.4621 28.5375 62.3876 30.0559 60.9731 30.418C60.667 30.4964 51.9207 30.507 47.8694 30.507C45.5156 30.507 43.9259 32.0994 43.9217 34.4585C43.9174 36.3665 43.9132 38.2745 43.9217 40.1804C43.9301 42.404 45.5451 44.0303 47.7449 44.0324C51.9186 44.0367 56.0922 44.0218 60.2659 44.0388C62.2841 44.0473 63.8083 46.1628 63.1201 47.9501C62.6641 49.1381 61.4734 49.9767 60.1962 49.9767C53.8756 49.9809 47.5528 49.9831 41.2321 49.9767C39.4229 49.9767 38.0971 48.6532 38.095 46.8426C38.0887 40.4261 38.0929 34.0117 38.0929 27.5952C38.0929 21.1787 38.1478 14.9125 38.0591 8.57227C38.0338 6.69814 39.7037 5.17766 41.3968 5.19884C47.6689 5.27719 53.941 5.22213 60.2131 5.23272C62.2313 5.23696 63.7598 7.22332 63.1539 9.01698C62.7253 10.2812 61.5114 11.1728 60.1772 11.1749C56.1028 11.1812 52.0283 11.1749 47.9539 11.177M72.1092 49.8983C73.2492 50.2033 74.5687 49.6358 75.2168 48.4202C75.4912 47.9035 75.6158 47.247 75.62 46.652C75.6601 40.4091 75.6897 34.1663 75.6559 27.9234C75.6432 25.6999 77.6636 24.1392 79.0886 24.1116C80.9252 24.0735 82.5613 25.6787 82.707 27.7117C82.8062 29.1093 84.0518 30.382 85.4367 30.5006C87.6512 30.6912 88.8841 31.9173 89.1374 34.1747C89.3084 35.7058 90.5308 36.9404 91.9727 37.0442C94.1366 37.1988 95.5911 38.7658 95.5953 40.9512C95.5996 43.0075 95.57 45.0637 95.6101 47.1179C95.6354 48.4308 96.4461 49.2715 97.565 49.7734C98.6564 50.2626 99.636 49.911 100.487 49.1254C101.253 48.4181 101.471 47.5287 101.468 46.5101C101.456 35.2632 101.46 24.0163 101.46 12.7716C101.46 11.2596 101.483 9.74969 101.449 8.23768C101.414 6.60073 100.005 5.20519 98.4791 5.23272C96.9612 5.26237 95.6038 6.71085 95.5995 8.33297C95.5911 10.9589 95.5974 13.5848 95.5974 16.2107C95.5974 19.9504 95.6038 23.6923 95.5932 27.4321C95.589 28.9695 94.4954 30.454 93.0599 30.9347C91.7151 31.3879 90.2352 30.9114 89.3253 29.5307C88.8989 28.8848 88.6962 28.0462 88.559 27.2648C88.3078 25.8481 87.1319 24.6559 85.7259 24.5606C83.6739 24.4229 82.2784 23.0274 82.1159 20.9542C82.0082 19.5566 80.7606 18.2902 79.3736 18.1716C77.0176 17.9683 75.6749 16.505 75.6707 14.1248C75.6664 12.1426 75.6897 10.1605 75.658 8.1805C75.639 6.91626 74.708 5.75578 73.4983 5.3619C72.4217 5.01249 71.3281 5.39155 70.4773 6.40379C69.9749 7.00308 69.7976 7.68709 69.7997 8.46639C69.8123 14.8342 69.8081 21.1999 69.8081 27.5655C69.8081 33.9312 69.806 40.4472 69.8102 46.887C69.8102 48.3059 70.7687 49.5383 72.1092 49.8962M227.989 8.28215C227.987 6.90567 227.031 5.6859 225.728 5.32166C224.572 4.99978 223.216 5.58849 222.566 6.82732C222.304 7.32497 222.186 7.95391 222.184 8.52568C222.159 14.8892 222.167 21.2507 222.167 27.6142C222.167 34.0519 222.165 40.4896 222.169 46.9273C222.169 48.2445 223.056 49.4325 224.293 49.8433C225.418 50.2139 226.558 49.7861 227.409 48.7019C227.897 48.0793 228 47.372 227.998 46.6096C227.989 38.4884 227.992 30.3672 227.992 22.246C227.992 17.5914 227.998 12.9368 227.987 8.28215M130.526 11.1791C132.502 11.177 134.476 11.1855 136.452 11.177C138.098 11.1685 139.538 9.76874 139.538 8.19956C139.538 6.62614 138.111 5.23696 136.447 5.23484C127.954 5.22849 119.459 5.22849 110.966 5.23484C109.305 5.23484 107.89 6.63249 107.901 8.22074C107.912 9.80263 109.334 11.1685 111 11.1749C112.951 11.1833 114.901 11.1749 116.852 11.177C119.221 11.177 120.789 12.7483 120.791 15.1264C120.794 20.3761 120.791 25.6279 120.791 30.8776C120.791 36.2268 120.789 41.576 120.794 46.9252C120.796 48.2148 121.651 49.3943 122.846 49.82C123.964 50.2181 125.121 49.8221 125.995 48.7675C126.498 48.1597 126.66 47.4652 126.656 46.6964C126.646 44.3691 126.654 42.0397 126.654 39.7124C126.654 31.4896 126.65 23.2667 126.656 15.0459C126.658 12.7568 128.25 11.1791 130.522 11.1749M148.829 43.4945C150.953 43.7254 152.179 44.9706 152.42 47.1369C152.597 48.7358 153.873 49.9725 155.418 49.9767C159.691 49.9915 163.964 49.9936 168.234 49.9767C169.721 49.9703 171.074 48.651 171.19 47.1708C171.353 45.0764 172.664 43.7021 174.756 43.5094C175.993 43.395 176.846 42.7428 177.344 41.6797C177.582 41.1694 177.627 40.5298 177.627 39.9496C177.642 29.571 177.637 19.1902 177.637 8.80945C177.637 8.6358 177.639 8.46215 177.635 8.2885C177.591 6.89508 176.666 5.69437 175.359 5.33014C174.2 5.00613 172.847 5.58214 172.186 6.82097C171.912 7.33767 171.79 7.99627 171.79 8.58921C171.766 19.0928 171.773 29.5964 171.773 40.0999C171.773 42.4696 170.196 44.0367 167.821 44.0388C163.769 44.0388 159.72 44.0409 155.669 44.0388C153.402 44.0367 151.816 42.4421 151.814 40.1508C151.808 35.6677 151.812 31.1825 151.812 26.6994C151.812 20.5815 151.816 14.4615 151.81 8.34356C151.81 6.91626 150.856 5.68378 149.526 5.32166C148.369 5.00825 147.011 5.61814 146.37 6.85273C146.121 7.33344 146.004 7.93485 146.002 8.48333C145.977 13.7838 145.985 19.0864 145.985 24.3869C145.985 29.6874 145.981 35.0387 145.988 40.3647C145.99 42.0482 147.153 43.3167 148.827 43.4988M206.139 24.5563C208.213 24.5521 209.851 22.9173 209.863 20.8441C209.874 18.8641 209.874 16.8841 209.863 14.9019C209.851 12.8245 208.215 11.1876 206.148 11.1791C204.075 11.1706 202.002 11.177 199.929 11.177C197.855 11.177 195.734 11.1685 193.635 11.1791C191.558 11.1897 189.928 12.8076 189.909 14.8935C189.892 16.8735 189.894 18.8535 189.909 20.8356C189.924 22.9215 191.552 24.55 193.627 24.5542C197.798 24.5627 201.968 24.5627 206.139 24.5542M209.291 8.37321C209.414 10.1118 210.993 11.6662 212.743 11.772C214.453 11.8758 215.699 13.1337 215.722 14.8511C215.749 16.9328 215.751 19.0144 215.72 21.094C215.694 22.7563 214.43 24.0142 212.762 24.1116C210.942 24.2196 209.399 25.7465 209.289 27.5507C209.19 29.1813 207.976 30.4032 206.342 30.5218C204.223 30.6721 202.62 32.4933 202.886 34.4479C203.093 35.9747 204.617 37.3766 206.186 37.4868C207.995 37.6117 209.169 38.7997 209.289 40.6272C209.405 42.4061 210.97 43.9202 212.802 44.0324C214.027 44.1066 215.173 44.9833 215.582 46.1586C215.96 47.2449 215.58 48.4308 214.575 49.2758C213.752 49.9661 212.819 50.2245 211.823 49.767C210.756 49.2779 210.003 48.471 209.882 47.2428C209.652 44.9218 208.432 43.6597 206.135 43.4289C204.782 43.2934 203.581 42.0503 203.41 40.604C203.133 38.283 201.964 37.1225 199.665 36.8853C198.267 36.7413 197.074 35.4538 196.971 33.9778C196.804 31.5721 194.393 29.8971 192.301 30.7314C190.842 31.3138 189.909 32.6987 189.907 34.3314C189.901 38.4439 189.93 42.5585 189.878 46.671C189.869 47.3466 189.652 48.1068 189.291 48.6722C188.548 49.8327 187.332 50.2139 186.208 49.8433C184.967 49.4367 184.08 48.2487 184.078 46.9294C184.072 40.4621 184.076 33.9947 184.076 27.5295C184.076 21.2359 184.137 14.9422 184.04 8.6485C184.011 6.66002 185.702 5.17131 187.452 5.19461C193.602 5.28143 199.753 5.22849 205.903 5.22849C207.896 5.22849 209.15 6.3932 209.289 8.36897M18.7636 47.139C18.7593 47.391 18.7614 47.3296 18.7636 47.139V47.139ZM31.654 8.39015C31.6519 6.70026 30.3113 5.25178 28.7597 5.23484C27.2164 5.22002 25.8421 6.67061 25.8316 8.35627C25.8189 10.4379 25.8294 12.5175 25.8294 14.5991C25.8294 16.7041 25.8379 30.8903 25.8252 32.9973C25.8126 35.0726 24.301 36.6566 22.2342 36.79C20.6382 36.8938 19.3758 38.2491 19.361 39.9115C19.3526 41.8767 17.7059 43.6682 15.8629 43.6809C15.8523 43.6809 15.8397 43.6809 15.8291 43.6809C15.8186 43.6809 15.8059 43.6809 15.7953 43.6809C13.9523 43.6682 12.3057 41.8767 12.2972 39.9115C12.2846 38.2491 11.02 36.8917 9.424 36.79C7.35722 36.6566 5.84566 35.0726 5.833 32.9973C5.82033 30.8924 5.83089 16.7062 5.82878 14.5991C5.82878 12.5175 5.83722 10.4358 5.82666 8.35627C5.81611 6.67061 4.44177 5.22002 2.89855 5.23484C1.34689 5.24966 0.00633063 6.70026 0.00421952 8.39015C-2.69909e-06 12.5535 -2.69909e-06 28.7959 0.00421952 32.9571C0.00421952 34.6957 1.15266 35.9557 2.87744 36.142C5.111 36.3835 6.42833 37.6752 6.43255 39.9327C6.44944 41.595 7.70555 42.9524 9.29522 43.0753C11.4338 43.2404 12.8926 44.7736 12.8989 46.9082C12.9052 48.236 13.7708 49.4261 15.0037 49.8412C15.2739 49.9322 15.5526 49.9767 15.8291 49.9788C16.1057 49.9767 16.3822 49.9322 16.6546 49.8412C17.8874 49.4261 18.753 48.236 18.7593 46.9082C18.7657 44.7736 20.2244 43.2425 22.363 43.0753C23.9527 42.9524 25.2088 41.595 25.2257 39.9327C25.2299 37.6731 26.5472 36.3835 28.7808 36.142C30.5056 35.9557 31.6519 34.6957 31.654 32.9571C31.6603 28.7959 31.6603 12.5535 31.654 8.39015Z" fill="#1A1B1D"/>
<path d="M217.839 4.07226C217.649 4.73508 217.012 5.23908 216.266 5.23908C215.361 5.23908 214.641 4.50002 214.641 3.60002C214.641 2.70001 215.369 1.96095 216.266 1.96095C217.012 1.96095 217.651 2.47342 217.839 3.14472H218.331C218.147 2.21083 217.28 1.48236 216.266 1.48236C215.101 1.48236 214.162 2.44166 214.162 3.60214C214.162 4.76261 215.101 5.71344 216.266 5.71344C217.273 5.71344 218.133 5.00614 218.335 4.07649H217.839V4.07226Z" fill="#1A1B1D"/>
<path d="M216.266 0C214.179 0 212.678 1.67295 212.678 3.59155C212.678 5.51014 214.179 7.19156 216.266 7.19156C218.354 7.19156 219.847 5.51861 219.847 3.59155C219.847 1.66448 218.346 0 216.266 0ZM216.266 6.70238C214.523 6.70238 213.165 5.32379 213.165 3.59155C213.165 1.8593 214.523 0.489179 216.266 0.489179C218.01 0.489179 219.359 1.86777 219.359 3.59155C219.359 5.31532 218.002 6.70238 216.266 6.70238Z" fill="#1A1B1D"/>
</g>
<defs>
<clipPath id="clip0_4010_440">
<rect width="228" height="50" fill="white"/>
</clipPath>
</defs>
</svg>
