<svg width="150" height="33" viewBox="0 0 150 33" fill="none" xmlns="http://www.w3.org/2000/svg">
<g clip-path="url(#clip0_4199_1029)">
<path d="M31.5472 7.35468C29.8833 7.35468 28.8958 8.35499 28.8944 10.038C28.8944 11.2445 28.8889 12.4496 28.8958 13.6561C28.9041 15.0925 29.9639 16.1541 31.3916 16.1569C34.1375 16.1611 36.8833 16.1541 39.6291 16.1597C40.6027 16.1625 41.5055 16.9538 41.6319 17.89C41.7514 18.7747 41.0444 19.7736 40.1139 20.0119C39.9125 20.0634 34.1583 20.0704 31.493 20.0704C29.9444 20.0704 28.8986 21.1181 28.8958 22.6701C28.893 23.9253 28.8903 25.1806 28.8958 26.4345C28.9014 27.8973 29.9639 28.9673 31.4111 28.9687C34.1569 28.9715 36.9028 28.9617 39.6486 28.9729C40.9764 28.9785 41.9791 30.3703 41.5264 31.5461C41.2264 32.3277 40.443 32.8794 39.6028 32.8794C35.4444 32.8822 31.2847 32.8836 27.1264 32.8794C25.9361 32.8794 25.0639 32.0087 25.0625 30.8175C25.0583 26.5961 25.0611 22.3761 25.0611 18.1547C25.0611 13.9333 25.0972 9.81088 25.0389 5.63965C25.0222 4.40667 26.1208 3.40636 27.2347 3.42029C31.3611 3.47184 35.4875 3.43562 39.6139 3.44258C40.9416 3.44537 41.9472 4.75219 41.5486 5.93222C41.2666 6.76396 40.468 7.3505 39.5902 7.35189C36.9097 7.35607 34.2291 7.35189 31.5486 7.35328M47.4403 32.8279C48.1903 33.0285 49.0583 32.6551 49.4847 31.8554C49.6653 31.5155 49.7472 31.0836 49.75 30.6921C49.7764 26.585 49.7958 22.4778 49.7736 18.3707C49.7653 16.9078 51.0944 15.881 52.0319 15.8629C53.2402 15.8378 54.3166 16.8939 54.4125 18.2314C54.4777 19.1509 55.2972 19.9882 56.2083 20.0662C57.6653 20.1916 58.4764 20.9982 58.643 22.4834C58.7555 23.4907 59.5597 24.3029 60.5083 24.3712C61.9319 24.4729 62.8889 25.5038 62.8916 26.9416C62.8944 28.2944 62.875 29.6472 62.9014 30.9986C62.918 31.8624 63.4514 32.4155 64.1875 32.7457C64.9055 33.0675 65.55 32.8362 66.1097 32.3193C66.6139 31.854 66.7569 31.2689 66.7555 30.5987C66.7472 23.1995 66.75 15.8002 66.75 8.40236C66.75 7.40762 66.7653 6.41427 66.743 5.41953C66.7194 4.34259 65.793 3.42447 64.7889 3.44258C63.7903 3.46209 62.8972 4.41503 62.8944 5.48222C62.8889 7.20978 62.893 8.93735 62.893 10.6649C62.893 13.1253 62.8972 15.5871 62.8903 18.0474C62.8875 19.0589 62.168 20.0355 61.2236 20.3518C60.3389 20.6499 59.3652 20.3365 58.7666 19.4281C58.4861 19.0032 58.3527 18.4515 58.2625 17.9374C58.0972 17.0053 57.3236 16.221 56.3986 16.1583C55.0486 16.0677 54.1305 15.1496 54.0236 13.7857C53.9528 12.8662 53.1319 12.033 52.2194 11.955C50.6694 11.8213 49.7861 10.8586 49.7833 9.29261C49.7805 7.98858 49.7958 6.68455 49.775 5.38191C49.7625 4.55017 49.15 3.7867 48.3541 3.52757C47.6458 3.29769 46.9264 3.54707 46.3666 4.21302C46.0361 4.60729 45.9194 5.0573 45.9208 5.56999C45.9291 9.75933 45.9264 13.9473 45.9264 18.1352C45.9264 22.3232 45.925 26.61 45.9277 30.8467C45.9277 31.7802 46.5583 32.591 47.4403 32.8265M149.993 5.44878C149.992 4.54321 149.362 3.74073 148.506 3.5011C147.744 3.28933 146.853 3.67664 146.425 4.49166C146.253 4.81906 146.175 5.23284 146.174 5.609C146.157 9.79555 146.162 13.9807 146.162 18.1673C146.162 22.4026 146.161 26.6379 146.164 30.8732C146.164 31.7398 146.747 32.5214 147.561 32.7916C148.301 33.0354 149.051 32.754 149.611 32.0407C149.932 31.6311 150 31.1658 149.999 30.6642C149.993 25.3213 149.994 19.9784 149.994 14.6355C149.994 11.5733 149.999 8.51103 149.992 5.44878M85.8722 7.35468C87.1722 7.35328 88.4708 7.35885 89.7708 7.35328C90.8541 7.34771 91.8014 6.42681 91.8014 5.39445C91.8014 4.35931 90.8625 3.44537 89.768 3.44398C84.1805 3.4398 78.5916 3.4398 73.0041 3.44398C71.9111 3.44398 70.9805 4.36348 70.9875 5.40838C70.9944 6.4491 71.9305 7.34771 73.0264 7.35189C74.3097 7.35746 75.593 7.35189 76.8764 7.35328C78.4347 7.35328 79.4666 8.38703 79.468 9.95159C79.4694 13.4053 79.468 16.8604 79.468 20.3142C79.468 23.8334 79.4666 27.3526 79.4694 30.8718C79.4708 31.7203 80.0333 32.4963 80.8194 32.7763C81.5555 33.0382 82.3166 32.7777 82.8916 32.0839C83.2222 31.684 83.3291 31.2271 83.3264 30.7213C83.3194 29.1902 83.325 27.6577 83.325 26.1266C83.325 20.7168 83.3222 15.307 83.3264 9.89865C83.3278 8.39261 84.375 7.35468 85.8694 7.35189M97.9139 28.6148C99.3111 28.7667 100.118 29.5859 100.276 31.0111C100.393 32.063 101.232 32.8766 102.249 32.8794C105.06 32.8892 107.871 32.8906 110.681 32.8794C111.658 32.8752 112.549 32.0073 112.625 31.0334C112.732 29.6556 113.594 28.7514 114.971 28.6246C115.785 28.5494 116.346 28.1203 116.674 27.4209C116.831 27.0851 116.86 26.6644 116.86 26.2826C116.869 19.4546 116.867 12.6251 116.867 5.79569C116.867 5.68145 116.868 5.56721 116.865 5.45296C116.836 4.53624 116.228 3.7463 115.368 3.50667C114.606 3.29351 113.715 3.67246 113.281 4.48748C113.1 4.82742 113.019 5.2607 113.019 5.6508C113.004 12.561 113.008 19.4713 113.008 26.3815C113.008 27.9405 111.971 28.9715 110.408 28.9729C107.743 28.9729 105.079 28.9743 102.414 28.9729C100.922 28.9715 99.8791 27.9224 99.8777 26.415C99.8736 23.4656 99.8764 20.5148 99.8764 17.5654C99.8764 13.5405 99.8791 9.51413 99.875 5.48919C99.875 4.55017 99.2472 3.73933 98.3722 3.5011C97.6111 3.2949 96.718 3.69614 96.2958 4.50838C96.1319 4.82463 96.0555 5.2203 96.0541 5.58114C96.0375 9.06831 96.043 12.5569 96.043 16.044C96.043 19.5312 96.0403 23.0518 96.0444 26.5557C96.0458 27.6633 96.8111 28.4978 97.9125 28.6176M135.618 16.1555C136.982 16.1527 138.06 15.0772 138.068 13.7132C138.075 12.4106 138.075 11.1079 138.068 9.80391C138.06 8.43719 136.983 7.36025 135.624 7.35468C134.26 7.3491 132.896 7.35328 131.532 7.35328C130.168 7.35328 128.772 7.34771 127.392 7.35468C126.025 7.36164 124.953 8.42604 124.94 9.79834C124.929 11.101 124.931 12.4036 124.94 13.7076C124.95 15.0799 126.021 16.1513 127.386 16.1541C130.131 16.1597 132.874 16.1597 135.618 16.1541M137.692 5.50869C137.772 6.6525 138.811 7.67511 139.962 7.74477C141.087 7.81304 141.907 8.64059 141.922 9.77048C141.94 11.14 141.942 12.5095 141.921 13.8776C141.904 14.9713 141.072 15.7988 139.975 15.8629C138.778 15.934 137.762 16.9385 137.69 18.1255C137.625 19.1982 136.826 20.0021 135.751 20.0801C134.357 20.179 133.303 21.3772 133.478 22.6631C133.614 23.6676 134.617 24.5899 135.649 24.6623C136.839 24.7445 137.611 25.5261 137.69 26.7285C137.767 27.8987 138.796 28.8949 140.001 28.9687C140.807 29.0175 141.561 29.5943 141.831 30.3675C142.079 31.0822 141.829 31.8624 141.168 32.4183C140.626 32.8724 140.012 33.0424 139.357 32.7415C138.656 32.4197 138.16 31.8888 138.081 31.0808C137.929 29.5539 137.126 28.7235 135.615 28.5716C134.725 28.4825 133.935 27.6647 133.822 26.7131C133.64 25.1862 132.871 24.4227 131.358 24.2667C130.439 24.1719 129.654 23.3249 129.586 22.3538C129.476 20.7711 127.89 19.6691 126.514 20.218C125.554 20.6012 124.94 21.5123 124.939 22.5865C124.935 25.2921 124.954 27.999 124.919 30.7046C124.914 31.1491 124.771 31.6492 124.533 32.0212C124.044 32.7847 123.244 33.0354 122.506 32.7916C121.689 32.5241 121.106 31.7426 121.104 30.8746C121.1 26.6198 121.103 22.365 121.103 18.1115C121.103 13.971 121.143 9.83038 121.079 5.68981C121.06 4.3816 122.172 3.40218 123.324 3.41751C127.369 3.47463 131.417 3.4398 135.462 3.4398C136.774 3.4398 137.599 4.20605 137.69 5.50591M12.3444 31.0125C12.3416 31.1783 12.343 31.1379 12.3444 31.0125V31.0125ZM20.825 5.51984C20.8236 4.40807 19.9416 3.45512 18.9208 3.44398C17.9055 3.43422 17.0014 4.38856 16.9944 5.49755C16.9861 6.86706 16.993 8.23518 16.993 9.60469C16.993 10.9895 16.9986 20.3225 16.9903 21.7088C16.9819 23.0741 15.9875 24.1162 14.6278 24.204C13.5778 24.2722 12.7472 25.1639 12.7375 26.2575C12.7319 27.5504 11.6486 28.7291 10.4361 28.7374C10.4291 28.7374 10.4208 28.7374 10.4139 28.7374C10.4069 28.7374 10.3986 28.7374 10.3916 28.7374C9.17914 28.7291 8.09581 27.5504 8.09025 26.2575C8.08192 25.1639 7.24998 24.2709 6.19998 24.204C4.84025 24.1162 3.84581 23.0741 3.83748 21.7088C3.82914 20.3239 3.83609 10.9909 3.8347 9.60469C3.8347 8.23518 3.84025 6.86566 3.83331 5.49755C3.82637 4.38856 2.9222 3.43422 1.90692 3.44398C0.886088 3.45373 0.00414361 4.40807 0.00275472 5.51984C-2.30577e-05 8.25886 -2.30577e-05 18.9447 0.00275472 21.6823C0.00275472 22.8261 0.75831 23.6551 1.89303 23.7777C3.36248 23.9365 4.22914 24.7863 4.23192 26.2715C4.24303 27.3651 5.06942 28.2582 6.11525 28.339C7.5222 28.4477 8.48192 29.4563 8.48609 30.8607C8.49025 31.7342 9.0597 32.5172 9.87081 32.7902C10.0486 32.8502 10.2319 32.8794 10.4139 32.8808C10.5958 32.8794 10.7778 32.8502 10.9569 32.7902C11.768 32.5172 12.3375 31.7342 12.3416 30.8607C12.3458 29.4563 13.3055 28.449 14.7125 28.339C15.7583 28.2582 16.5847 27.3651 16.5958 26.2715C16.5986 24.7849 17.4653 23.9365 18.9347 23.7777C20.0694 23.6551 20.8236 22.8261 20.825 21.6823C20.8291 18.9447 20.8291 8.25886 20.825 5.51984Z" fill="#9E76E9"/>
<path d="M143.315 2.67913C143.19 3.1152 142.771 3.44678 142.281 3.44678C141.685 3.44678 141.211 2.96055 141.211 2.36845C141.211 1.77634 141.69 1.29011 142.281 1.29011C142.771 1.29011 143.192 1.62727 143.315 2.06891H143.639C143.518 1.45451 142.947 0.97525 142.281 0.97525C141.514 0.97525 140.896 1.60637 140.896 2.36984C140.896 3.13331 141.514 3.75885 142.281 3.75885C142.943 3.75885 143.508 3.29353 143.642 2.68191H143.315V2.67913Z" fill="#9E76E9"/>
<path d="M142.281 0C140.907 0 139.919 1.10062 139.919 2.36286C139.919 3.62509 140.907 4.73129 142.281 4.73129C143.654 4.73129 144.636 3.63067 144.636 2.36286C144.636 1.09505 143.649 0 142.281 0ZM142.281 4.40946C141.133 4.40946 140.24 3.50249 140.24 2.36286C140.24 1.22323 141.133 0.321828 142.281 0.321828C143.428 0.321828 144.315 1.2288 144.315 2.36286C144.315 3.49692 143.422 4.40946 142.281 4.40946Z" fill="#9E76E9"/>
</g>
<defs>
<clipPath id="clip0_4199_1029">
<rect width="150" height="32.8947" fill="white"/>
</clipPath>
</defs>
</svg>
