<svg width="100" height="100" viewBox="0 0 100 100" fill="none" xmlns="http://www.w3.org/2000/svg">
<g clip-path="url(#clip0_4743_484)">
<circle cx="50" cy="50" r="50" fill="#F5F5F5"/>
<path d="M72.0571 14.0002C74.7354 14.0293 77.0493 16.522 77.053 19.4302C77.0639 26.5948 77.0639 54.5464 77.053 61.7074C77.0493 64.6993 75.0706 66.8676 72.0935 67.1883C68.2382 67.6038 65.9643 69.8231 65.9571 73.7116C65.9279 76.5723 63.7597 78.9083 61.0158 79.1197C57.3245 79.4076 54.8065 82.0424 54.7956 85.7158C54.7846 88.0008 53.2906 90.0489 51.1625 90.7631C50.6924 90.9198 50.2151 90.9964 49.7377 91C49.2604 90.9964 48.7793 90.9198 48.3129 90.7631C46.1848 90.0489 44.6908 88.0008 44.6799 85.7158C44.6689 82.0424 42.1509 79.4039 38.4596 79.1197C35.7157 78.9083 33.5475 76.5723 33.5184 73.7116C33.5111 69.8268 31.2372 67.6038 27.3819 67.1883C24.4048 66.8676 22.4225 64.6993 22.4225 61.7074C22.4152 54.5464 22.4152 26.5948 22.4225 19.4302C22.4261 16.522 24.74 14.0257 27.4184 14.0002C30.0821 13.9747 32.4543 16.471 32.4725 19.3718C32.4908 22.9505 32.4762 26.5328 32.4762 30.1152C32.4798 33.7412 32.4616 58.1542 32.4835 61.7766C32.5053 65.348 35.1144 68.0739 38.6819 68.3035C41.4367 68.4784 43.6195 70.8144 43.6413 73.6751C43.6559 77.057 46.4982 80.1401 49.6794 80.1619H49.7377H49.796C52.9772 80.1401 55.8195 77.057 55.8341 73.6751C55.8596 70.8144 58.0387 68.482 60.7935 68.3035C64.361 68.0739 66.9701 65.348 66.9919 61.7766C67.0138 58.1505 66.9992 33.7376 66.9992 30.1152C66.9992 26.5328 66.981 22.9542 67.0029 19.3718C67.0211 16.471 69.3933 13.9747 72.0571 14.0002Z" fill="#9E76E9"/>
</g>
<defs>
<clipPath id="clip0_4743_484">
<rect width="100" height="100" fill="white"/>
</clipPath>
</defs>
</svg>
